# xmcd
#
# Track frame offsets:
#	150
#	17331
#	34202
#	54416
#	72372
#	94820
#	112233
#	128080
#	143628
#	152498
#	172921
#	187035
#
# Disc length: 2703 seconds
#
# Revision: 1
# Processed by: cddbd v1.5.2PL0 Copyright (c) Steve Scherf et al.
# Submitted via: audiograbber 1.83.01
#
DISCID=9c0a8d0c
DTITLE=Helge Johansen - There's a train
DYEAR=2002
DGENRE=Kristen Country
TTITLE0=There's a train
TTITLE1=Bred dina vida vingar
TTITLE2=Manison over the hilltop
TTITLE3=Oh why
TTITLE4=Amazing grace
TTITLE5=Ovan där
TTITLE6=Jag har hørt om en stad
TTITLE7=Han skal åpne perleporten
TTITLE8=Life's railway to heaven
TTITLE9=Look for me
TTITLE10=Trekkfuglene
TTITLE11=Når jeg ser min kjære frelser
EXTD=Innspilt mai-juni 2002\nStudio: Farstad Sound Production
EXTT0=
EXTT1=
EXTT2=
EXTT3=
EXTT4=
EXTT5=
EXTT6=
EXTT7=
EXTT8=
EXTT9=
EXTT10=
EXTT11=
PLAYORDER=
